%TF.GenerationSoftware,KiCad,Pcbnew,7.0.10*%
%TF.CreationDate,2024-09-03T14:41:22-05:00*%
%TF.ProjectId,placa_stm32f411,706c6163-615f-4737-946d-333266343131,rev?*%
%TF.SameCoordinates,Original*%
%TF.FileFunction,Soldermask,Top*%
%TF.FilePolarity,Negative*%
%FSLAX46Y46*%
G04 Gerber Fmt 4.6, Leading zero omitted, Abs format (unit mm)*
G04 Created by KiCad (PCBNEW 7.0.10) date 2024-09-03 14:41:22*
%MOMM*%
%LPD*%
G01*
G04 APERTURE LIST*
G04 Aperture macros list*
%AMRoundRect*
0 Rectangle with rounded corners*
0 $1 Rounding radius*
0 $2 $3 $4 $5 $6 $7 $8 $9 X,Y pos of 4 corners*
0 Add a 4 corners polygon primitive as box body*
4,1,4,$2,$3,$4,$5,$6,$7,$8,$9,$2,$3,0*
0 Add four circle primitives for the rounded corners*
1,1,$1+$1,$2,$3*
1,1,$1+$1,$4,$5*
1,1,$1+$1,$6,$7*
1,1,$1+$1,$8,$9*
0 Add four rect primitives between the rounded corners*
20,1,$1+$1,$2,$3,$4,$5,0*
20,1,$1+$1,$4,$5,$6,$7,0*
20,1,$1+$1,$6,$7,$8,$9,0*
20,1,$1+$1,$8,$9,$2,$3,0*%
G04 Aperture macros list end*
%ADD10RoundRect,0.250001X0.462499X0.624999X-0.462499X0.624999X-0.462499X-0.624999X0.462499X-0.624999X0*%
%ADD11RoundRect,0.250000X0.600000X0.725000X-0.600000X0.725000X-0.600000X-0.725000X0.600000X-0.725000X0*%
%ADD12O,1.700000X1.950000*%
%ADD13RoundRect,0.250001X-0.462499X-0.624999X0.462499X-0.624999X0.462499X0.624999X-0.462499X0.624999X0*%
%ADD14RoundRect,0.250000X-0.750000X0.600000X-0.750000X-0.600000X0.750000X-0.600000X0.750000X0.600000X0*%
%ADD15O,2.000000X1.700000*%
%ADD16RoundRect,0.102000X0.875000X-0.875000X0.875000X0.875000X-0.875000X0.875000X-0.875000X-0.875000X0*%
%ADD17C,1.954000*%
%ADD18R,1.700000X1.700000*%
%ADD19O,1.700000X1.700000*%
%ADD20C,0.800000*%
%ADD21C,6.400000*%
%ADD22RoundRect,0.250000X-0.600000X-0.725000X0.600000X-0.725000X0.600000X0.725000X-0.600000X0.725000X0*%
%ADD23R,2.000000X0.900000*%
%ADD24RoundRect,1.025000X-1.025000X1.025000X-1.025000X-1.025000X1.025000X-1.025000X1.025000X1.025000X0*%
%ADD25C,4.100000*%
%ADD26RoundRect,0.250000X0.725000X-0.600000X0.725000X0.600000X-0.725000X0.600000X-0.725000X-0.600000X0*%
%ADD27O,1.950000X1.700000*%
%ADD28R,2.350000X0.850000*%
%ADD29R,1.600000X1.600000*%
%ADD30O,1.600000X1.600000*%
%ADD31RoundRect,0.250000X0.750000X-0.600000X0.750000X0.600000X-0.750000X0.600000X-0.750000X-0.600000X0*%
G04 APERTURE END LIST*
D10*
%TO.C,D4*%
X159560000Y-88000000D03*
X156585000Y-88000000D03*
%TD*%
D11*
%TO.C,J1*%
X108500000Y-81000000D03*
D12*
X106000000Y-81000000D03*
X103500000Y-81000000D03*
%TD*%
D13*
%TO.C,D3*%
X129552500Y-88000000D03*
X132527500Y-88000000D03*
%TD*%
D14*
%TO.C,J23*%
X120500000Y-88500000D03*
D15*
X120500000Y-91000000D03*
%TD*%
D16*
%TO.C,TB6612FNG*%
X135610000Y-91620000D03*
D17*
X138150000Y-91620000D03*
X140690000Y-91620000D03*
X143230000Y-91620000D03*
X145770000Y-91620000D03*
X148310000Y-91620000D03*
X150850000Y-91620000D03*
X153390000Y-91620000D03*
X153390000Y-76380000D03*
X150850000Y-76380000D03*
X148310000Y-76380000D03*
X145770000Y-76380000D03*
X143230000Y-76380000D03*
X140690000Y-76380000D03*
X138150000Y-76380000D03*
D16*
X135610000Y-76380000D03*
%TD*%
D18*
%TO.C,J16*%
X168500000Y-69000000D03*
D19*
X165960000Y-69000000D03*
X163420000Y-69000000D03*
X160880000Y-69000000D03*
X158340000Y-69000000D03*
X155800000Y-69000000D03*
X153260000Y-69000000D03*
X150720000Y-69000000D03*
X148180000Y-69000000D03*
X145640000Y-69000000D03*
X143100000Y-69000000D03*
X140560000Y-69000000D03*
X138020000Y-69000000D03*
X135480000Y-69000000D03*
X132940000Y-69000000D03*
X130400000Y-69000000D03*
X127860000Y-69000000D03*
X125320000Y-69000000D03*
X122780000Y-69000000D03*
X120240000Y-69000000D03*
%TD*%
D18*
%TO.C,J25*%
X123125000Y-57600000D03*
D19*
X123125000Y-60140000D03*
X123125000Y-62680000D03*
X123125000Y-65220000D03*
%TD*%
D13*
%TO.C,D1*%
X129552500Y-75500000D03*
X132527500Y-75500000D03*
%TD*%
D20*
%TO.C,H2*%
X183100000Y-54000000D03*
X183802944Y-52302944D03*
X183802944Y-55697056D03*
X185500000Y-51600000D03*
D21*
X185500000Y-54000000D03*
D20*
X185500000Y-56400000D03*
X187197056Y-52302944D03*
X187197056Y-55697056D03*
X187900000Y-54000000D03*
%TD*%
D22*
%TO.C,J5*%
X180500000Y-80000000D03*
D12*
X183000000Y-80000000D03*
X185500000Y-80000000D03*
%TD*%
D11*
%TO.C,J9*%
X112500000Y-69000000D03*
D12*
X110000000Y-69000000D03*
X107500000Y-69000000D03*
%TD*%
D10*
%TO.C,D5*%
X159560000Y-85500000D03*
X156585000Y-85500000D03*
%TD*%
D20*
%TO.C,H1*%
X101100000Y-54000000D03*
X101802944Y-52302944D03*
X101802944Y-55697056D03*
X103500000Y-51600000D03*
D21*
X103500000Y-54000000D03*
D20*
X103500000Y-56400000D03*
X105197056Y-52302944D03*
X105197056Y-55697056D03*
X105900000Y-54000000D03*
%TD*%
D23*
%TO.C,J21*%
X135000000Y-96950000D03*
X135000000Y-110450000D03*
D24*
X129000000Y-100100000D03*
D25*
X129000000Y-107300000D03*
%TD*%
D26*
%TO.C,J7*%
X177500000Y-58000000D03*
D27*
X177500000Y-55500000D03*
X177500000Y-53000000D03*
%TD*%
D20*
%TO.C,H3*%
X101100000Y-91000000D03*
X101802944Y-89302944D03*
X101802944Y-92697056D03*
X103500000Y-88600000D03*
D21*
X103500000Y-91000000D03*
D20*
X103500000Y-93400000D03*
X105197056Y-89302944D03*
X105197056Y-92697056D03*
X105900000Y-91000000D03*
%TD*%
D28*
%TO.C,J20*%
X159850000Y-97900000D03*
X162200000Y-99900000D03*
%TD*%
D29*
%TO.C,SW1*%
X176432500Y-71625000D03*
D30*
X176432500Y-74165000D03*
X184052500Y-74165000D03*
X184052500Y-71625000D03*
%TD*%
D11*
%TO.C,J3*%
X130500000Y-81000000D03*
D12*
X128000000Y-81000000D03*
X125500000Y-81000000D03*
%TD*%
D22*
%TO.C,J4*%
X158500000Y-80000000D03*
D12*
X161000000Y-80000000D03*
X163500000Y-80000000D03*
%TD*%
D18*
%TO.C,J15*%
X120360000Y-53760000D03*
D19*
X122900000Y-53760000D03*
X125440000Y-53760000D03*
X127980000Y-53760000D03*
X130520000Y-53760000D03*
X133060000Y-53760000D03*
X135600000Y-53760000D03*
X138140000Y-53760000D03*
X140680000Y-53760000D03*
X143220000Y-53760000D03*
X145760000Y-53760000D03*
X148300000Y-53760000D03*
X150840000Y-53760000D03*
X153380000Y-53760000D03*
X155920000Y-53760000D03*
X158460000Y-53760000D03*
X161000000Y-53760000D03*
X163540000Y-53760000D03*
X166080000Y-53760000D03*
X168620000Y-53760000D03*
%TD*%
D13*
%TO.C,D2*%
X129540000Y-85500000D03*
X132515000Y-85500000D03*
%TD*%
D11*
%TO.C,J10*%
X112500000Y-62000000D03*
D12*
X110000000Y-62000000D03*
X107500000Y-62000000D03*
%TD*%
D22*
%TO.C,J8*%
X177500000Y-64000000D03*
D12*
X180000000Y-64000000D03*
X182500000Y-64000000D03*
%TD*%
D28*
%TO.C,J19*%
X159825000Y-108000000D03*
X162175000Y-110000000D03*
%TD*%
D20*
%TO.C,H4*%
X183100000Y-91000000D03*
X183802944Y-89302944D03*
X183802944Y-92697056D03*
X185500000Y-88600000D03*
D21*
X185500000Y-91000000D03*
D20*
X185500000Y-93400000D03*
X187197056Y-89302944D03*
X187197056Y-92697056D03*
X187900000Y-91000000D03*
%TD*%
D11*
%TO.C,J2*%
X119500000Y-81000000D03*
D12*
X117000000Y-81000000D03*
X114500000Y-81000000D03*
%TD*%
D22*
%TO.C,J6*%
X169500000Y-80000000D03*
D12*
X172000000Y-80000000D03*
X174500000Y-80000000D03*
%TD*%
D18*
%TO.C,J17*%
X114500000Y-54000000D03*
D19*
X111960000Y-54000000D03*
X109420000Y-54000000D03*
%TD*%
D10*
%TO.C,D6*%
X152200000Y-110600000D03*
X149225000Y-110600000D03*
%TD*%
D28*
%TO.C,J22*%
X159850000Y-102900000D03*
X162200000Y-104900000D03*
%TD*%
D31*
%TO.C,J24*%
X168500000Y-91000000D03*
D15*
X168500000Y-88500000D03*
%TD*%
M02*
