M48
; DRILL file {KiCad 7.0.10} date Tue Sep  3 14:41:11 2024
; FORMAT={-:-/ absolute / metric / decimal}
; #@! TF.CreationDate,2024-09-03T14:41:11-05:00
; #@! TF.GenerationSoftware,Kicad,Pcbnew,7.0.10
; #@! TF.FileFunction,MixedPlating,1,2
FMAT,2
METRIC
; #@! TA.AperFunction,Plated,PTH,ViaDrill
T1C0.300
; #@! TA.AperFunction,Plated,PTH,ViaDrill
T2C0.400
; #@! TA.AperFunction,Plated,PTH,ComponentDrill
T3C0.500
; #@! TA.AperFunction,Plated,PTH,ComponentDrill
T4C0.600
; #@! TA.AperFunction,Plated,PTH,ComponentDrill
T5C0.800
; #@! TA.AperFunction,Plated,PTH,ComponentDrill
T6C0.950
; #@! TA.AperFunction,Plated,PTH,ComponentDrill
T7C1.000
; #@! TA.AperFunction,Plated,PTH,ComponentDrill
T8C2.700
; #@! TA.AperFunction,Plated,PTH,ComponentDrill
T9C3.200
%
G90
G05
T1
X128.1Y-75.0
X128.1Y-76.0
X128.1Y-85.0
X128.1Y-86.0
X128.1Y-87.5
X128.1Y-88.5
X134.75Y-85.0
X134.75Y-86.0
X134.75Y-87.5
X134.75Y-88.5
X139.8Y-51.3
X143.2Y-72.0
X144.4Y-72.4
X147.2Y-72.4
X147.3Y-110.1
X147.3Y-111.1
X153.7Y-110.1
X153.7Y-111.1
X154.25Y-85.0
X154.25Y-86.0
X154.25Y-87.5
X154.25Y-88.5
X161.0Y-85.0
X161.0Y-86.0
X161.0Y-87.5
X161.0Y-88.5
X169.5Y-72.0
X169.5Y-73.5
X169.5Y-76.0
X171.0Y-72.0
X171.0Y-73.5
X171.0Y-76.0
X172.5Y-72.0
X172.5Y-74.5
X172.5Y-76.0
X174.0Y-72.0
X174.0Y-74.5
X174.0Y-76.0
T2
X102.0Y-59.0
X102.0Y-62.0
X102.0Y-65.0
X102.0Y-68.0
X102.0Y-71.0
X105.0Y-62.0
X105.0Y-65.0
X105.0Y-68.0
X105.0Y-78.0
X105.0Y-84.0
X108.0Y-51.0
X108.0Y-56.0
X108.0Y-65.0
X108.0Y-88.0
X111.0Y-51.0
X111.0Y-80.0
X112.0Y-65.0
X112.0Y-82.0
X112.0Y-88.0
X112.0Y-91.0
X112.0Y-94.0
X114.0Y-56.0
X115.0Y-62.0
X115.0Y-65.0
X115.0Y-69.0
X115.0Y-88.0
X115.0Y-91.0
X115.0Y-94.0
X118.0Y-55.0
X118.0Y-58.0
X118.0Y-62.0
X118.0Y-65.0
X120.4Y-62.2
X122.0Y-74.0
X122.0Y-77.0
X122.0Y-80.0
X124.0Y-82.0
X124.0Y-85.0
X126.0Y-56.0
X126.0Y-59.0
X126.0Y-62.0
X126.0Y-65.0
X126.0Y-105.0
X126.0Y-108.0
X127.0Y-85.0
X129.0Y-62.0
X129.0Y-65.0
X129.0Y-111.0
X132.0Y-56.0
X132.0Y-59.0
X132.0Y-64.0
X132.0Y-82.0
X132.0Y-105.0
X132.0Y-108.0
X132.0Y-111.0
X133.0Y-67.0
X135.0Y-56.0
X135.0Y-61.0
X135.0Y-65.0
X135.0Y-82.0
X135.0Y-105.0
X135.0Y-108.0
X136.0Y-71.0
X138.0Y-105.0
X138.0Y-108.0
X138.0Y-111.0
X139.0Y-63.0
X139.0Y-71.0
X140.0Y-88.0
X141.0Y-105.0
X141.0Y-108.0
X141.0Y-111.0
X143.0Y-85.0
X143.0Y-88.0
X144.0Y-67.0
X144.0Y-105.0
X144.0Y-108.0
X144.0Y-111.0
X146.0Y-85.0
X146.0Y-90.0
X147.0Y-105.0
X148.0Y-80.0
X149.0Y-88.0
X150.0Y-85.0
X150.0Y-106.0
X150.0Y-108.0
X152.0Y-56.0
X152.0Y-59.0
X152.0Y-65.0
X153.0Y-88.0
X153.0Y-108.0
X154.0Y-80.0
X155.0Y-59.0
X155.0Y-62.0
X155.0Y-90.0
X155.0Y-98.0
X156.0Y-92.0
X157.0Y-98.0
X158.0Y-73.0
X158.0Y-76.0
X158.0Y-90.0
X159.0Y-56.0
X159.0Y-105.0
X160.0Y-78.0
X162.0Y-73.0
X163.0Y-103.0
X164.0Y-85.0
X165.0Y-73.0
X165.0Y-76.0
X167.0Y-56.0
X167.0Y-59.0
X167.0Y-62.0
X167.0Y-73.0
X167.0Y-76.0
X167.0Y-79.0
X167.0Y-81.0
X167.0Y-85.0
X170.0Y-53.0
X170.0Y-56.0
X170.0Y-59.0
X170.0Y-62.0
X173.0Y-53.0
X173.0Y-56.0
X173.0Y-59.0
X173.0Y-64.0
X173.0Y-70.0
X173.0Y-88.0
X173.0Y-91.0
X173.0Y-94.0
X176.0Y-62.0
X176.0Y-85.0
X176.0Y-88.0
X176.0Y-91.0
X176.0Y-94.0
X179.0Y-62.0
X179.0Y-71.0
X179.0Y-74.0
X179.0Y-85.0
X179.0Y-88.0
X182.0Y-59.0
X182.0Y-62.0
X182.0Y-71.0
X182.0Y-74.0
X182.0Y-82.0
X182.0Y-85.0
X182.0Y-88.0
X186.0Y-59.0
X186.0Y-62.0
X186.0Y-65.0
X186.0Y-68.0
X186.0Y-71.0
X186.0Y-74.0
X186.0Y-78.0
X186.0Y-85.0
T3
X101.1Y-54.0
X101.1Y-91.0
X101.803Y-52.303
X101.803Y-55.697
X101.803Y-89.303
X101.803Y-92.697
X103.5Y-51.6
X103.5Y-56.4
X103.5Y-88.6
X103.5Y-93.4
X105.197Y-52.303
X105.197Y-55.697
X105.197Y-89.303
X105.197Y-92.697
X105.9Y-54.0
X105.9Y-91.0
X183.1Y-54.0
X183.1Y-91.0
X183.803Y-52.303
X183.803Y-55.697
X183.803Y-89.303
X183.803Y-92.697
X185.5Y-51.6
X185.5Y-56.4
X185.5Y-88.6
X185.5Y-93.4
X187.197Y-52.303
X187.197Y-55.697
X187.197Y-89.303
X187.197Y-92.697
X187.9Y-54.0
X187.9Y-91.0
T5
X176.433Y-71.625
X176.433Y-74.165
X184.052Y-71.625
X184.052Y-74.165
T6
X103.5Y-81.0
X106.0Y-81.0
X107.5Y-62.0
X107.5Y-69.0
X108.5Y-81.0
X110.0Y-62.0
X110.0Y-69.0
X112.5Y-62.0
X112.5Y-69.0
X114.5Y-81.0
X117.0Y-81.0
X119.5Y-81.0
X125.5Y-81.0
X128.0Y-81.0
X130.5Y-81.0
X158.5Y-80.0
X161.0Y-80.0
X163.5Y-80.0
X169.5Y-80.0
X172.0Y-80.0
X174.5Y-80.0
X177.5Y-53.0
X177.5Y-55.5
X177.5Y-58.0
X177.5Y-64.0
X180.0Y-64.0
X180.5Y-80.0
X182.5Y-64.0
X183.0Y-80.0
X185.5Y-80.0
T7
X109.42Y-54.0
X111.96Y-54.0
X114.5Y-54.0
X120.24Y-69.0
X120.36Y-53.76
X120.5Y-88.5
X120.5Y-91.0
X122.78Y-69.0
X122.9Y-53.76
X123.125Y-57.6
X123.125Y-60.14
X123.125Y-62.68
X123.125Y-65.22
X125.32Y-69.0
X125.44Y-53.76
X127.86Y-69.0
X127.98Y-53.76
X130.4Y-69.0
X130.52Y-53.76
X132.94Y-69.0
X133.06Y-53.76
X135.48Y-69.0
X135.6Y-53.76
X135.61Y-76.38
X135.61Y-91.62
X138.02Y-69.0
X138.14Y-53.76
X138.15Y-76.38
X138.15Y-91.62
X140.56Y-69.0
X140.68Y-53.76
X140.69Y-76.38
X140.69Y-91.62
X143.1Y-69.0
X143.22Y-53.76
X143.23Y-76.38
X143.23Y-91.62
X145.64Y-69.0
X145.76Y-53.76
X145.77Y-76.38
X145.77Y-91.62
X148.18Y-69.0
X148.3Y-53.76
X148.31Y-76.38
X148.31Y-91.62
X150.72Y-69.0
X150.84Y-53.76
X150.85Y-76.38
X150.85Y-91.62
X153.26Y-69.0
X153.38Y-53.76
X153.39Y-76.38
X153.39Y-91.62
X155.8Y-69.0
X155.92Y-53.76
X158.34Y-69.0
X158.46Y-53.76
X160.88Y-69.0
X161.0Y-53.76
X163.42Y-69.0
X163.54Y-53.76
X165.96Y-69.0
X166.08Y-53.76
X168.5Y-69.0
X168.5Y-88.5
X168.5Y-91.0
X168.62Y-53.76
T8
X129.0Y-100.1
X129.0Y-107.3
T9
X103.5Y-54.0
X103.5Y-91.0
X185.5Y-54.0
X185.5Y-91.0
T4
G00X135.55Y-96.95
M15
G01X134.45Y-96.95
M16
G05
G00X135.55Y-110.45
M15
G01X134.45Y-110.45
M16
G05
M30
