%TF.GenerationSoftware,KiCad,Pcbnew,7.0.10*%
%TF.CreationDate,2024-09-03T14:41:22-05:00*%
%TF.ProjectId,placa_stm32f411,706c6163-615f-4737-946d-333266343131,rev?*%
%TF.SameCoordinates,Original*%
%TF.FileFunction,Profile,NP*%
%FSLAX46Y46*%
G04 Gerber Fmt 4.6, Leading zero omitted, Abs format (unit mm)*
G04 Created by KiCad (PCBNEW 7.0.10) date 2024-09-03 14:41:22*
%MOMM*%
%LPD*%
G01*
G04 APERTURE LIST*
%TA.AperFunction,Profile*%
%ADD10C,0.100000*%
%TD*%
G04 APERTURE END LIST*
D10*
X100700000Y-76600000D02*
X100700000Y-88100000D01*
X111000000Y-93900000D02*
X111000000Y-90100000D01*
X100700000Y-71400000D02*
G75*
G03*
X101800000Y-72500000I1100000J0D01*
G01*
X189500000Y-91000000D02*
X189500000Y-89300000D01*
X112100000Y-95000000D02*
X123000000Y-95000000D01*
X185500000Y-95000000D02*
G75*
G03*
X189500000Y-91000000I0J4000000D01*
G01*
X103500000Y-50000000D02*
G75*
G03*
X99500000Y-54000000I0J-4000000D01*
G01*
X100700000Y-71400000D02*
X100700000Y-57100000D01*
X115600000Y-75500000D02*
G75*
G03*
X116700000Y-74400000I0J1100000D01*
G01*
X111000000Y-90100000D02*
G75*
G03*
X109900000Y-89000000I-1100000J0D01*
G01*
X179100000Y-89000000D02*
X180400000Y-89000000D01*
X166000000Y-95000000D02*
X176900000Y-95000000D01*
X99500000Y-91000000D02*
G75*
G03*
X103500000Y-95000000I4000000J0D01*
G01*
X189500000Y-89300000D02*
G75*
G03*
X188900000Y-88700000I-600000J0D01*
G01*
X99500000Y-55900000D02*
G75*
G03*
X100100000Y-56500000I600000J0D01*
G01*
X189500000Y-54000000D02*
G75*
G03*
X185500000Y-50000000I-4000000J0D01*
G01*
X189500000Y-54000000D02*
X189500000Y-55900000D01*
X181500000Y-90100000D02*
X181500000Y-91000000D01*
X101800000Y-72500000D02*
X115600000Y-72500000D01*
X166000000Y-95000000D02*
G75*
G03*
X164000000Y-97000000I0J-2000000D01*
G01*
X188300000Y-88100000D02*
X188300000Y-57100000D01*
X127000000Y-112000000D02*
X162000000Y-112000000D01*
X109900000Y-89000000D02*
X108600000Y-89000000D01*
X107500000Y-90100000D02*
X107500000Y-91000000D01*
X179100000Y-89000000D02*
G75*
G03*
X178000000Y-90100000I0J-1100000D01*
G01*
X125000000Y-97000000D02*
G75*
G03*
X123000000Y-95000000I-2000000J0D01*
G01*
X108600000Y-89000000D02*
G75*
G03*
X107500000Y-90100000I0J-1100000D01*
G01*
X164000000Y-110000000D02*
X164000000Y-97000000D01*
X100100000Y-88700000D02*
G75*
G03*
X100700000Y-88100000I0J600000D01*
G01*
X116700000Y-73600000D02*
X116700000Y-74400000D01*
X181500000Y-90100000D02*
G75*
G03*
X180400000Y-89000000I-1100000J0D01*
G01*
X162000000Y-112000000D02*
G75*
G03*
X164000000Y-110000000I0J2000000D01*
G01*
X188900000Y-56500000D02*
G75*
G03*
X189500000Y-55900000I0J600000D01*
G01*
X111000000Y-93900000D02*
G75*
G03*
X112100000Y-95000000I1100000J0D01*
G01*
X125000000Y-110000000D02*
G75*
G03*
X127000000Y-112000000I2000000J0D01*
G01*
X100100000Y-88700000D02*
G75*
G03*
X99500000Y-89300000I0J-600000D01*
G01*
X100700000Y-57100000D02*
G75*
G03*
X100100000Y-56500000I-600000J0D01*
G01*
X176900000Y-95000000D02*
G75*
G03*
X178000000Y-93900000I0J1100000D01*
G01*
X178000000Y-93900000D02*
X178000000Y-90100000D01*
X188300000Y-88100000D02*
G75*
G03*
X188900000Y-88700000I600000J0D01*
G01*
X115600000Y-75500000D02*
X101800000Y-75500000D01*
X188900000Y-56500000D02*
G75*
G03*
X188300000Y-57100000I0J-600000D01*
G01*
X99500000Y-91000000D02*
X99500000Y-89300000D01*
X101800000Y-75500000D02*
G75*
G03*
X100700000Y-76600000I0J-1100000D01*
G01*
X116700000Y-73600000D02*
G75*
G03*
X115600000Y-72500000I-1100000J0D01*
G01*
X99500000Y-54000000D02*
X99500000Y-55900000D01*
X103500000Y-95000000D02*
G75*
G03*
X107500000Y-91000000I0J4000000D01*
G01*
X125000000Y-97000000D02*
X125000000Y-110000000D01*
X103500000Y-50000000D02*
X185500000Y-50000000D01*
X181500000Y-91000000D02*
G75*
G03*
X185500000Y-95000000I4000000J0D01*
G01*
M02*
